<svg width="396" height="122" viewBox="0 0 396 122" fill="none" xmlns="http://www.w3.org/2000/svg">
<path d="M155 52.24H135.3V79.3401C135.288 79.4229 135.296 79.5073 135.323 79.5866C135.349 79.6659 135.394 79.738 135.453 79.7971C135.512 79.8563 135.584 79.9009 135.663 79.9274C135.743 79.9539 135.827 79.9617 135.91 79.95H155V91.37H135.88C132.697 91.37 129.645 90.1058 127.395 87.8553C125.144 85.6049 123.88 82.5526 123.88 79.37V24.27H135.29V40.83H155V52.24Z" fill="white"/>
<path d="M202.89 40.83C206.069 40.8431 209.113 42.1116 211.361 44.3592C213.608 46.6068 214.877 49.6514 214.89 52.83V91.3499H175.59C172.411 91.3368 169.367 90.0683 167.119 87.8207C164.872 85.5731 163.603 82.5285 163.59 79.3499V60.35H203.5V52.85C203.512 52.7671 203.504 52.6827 203.477 52.6034C203.451 52.5241 203.406 52.452 203.347 52.3929C203.288 52.3337 203.216 52.2891 203.137 52.2626C203.057 52.236 202.973 52.2283 202.89 52.24H163.59V40.83H202.89ZM203.5 80V71.9H175V79.39C174.988 79.4728 174.996 79.5572 175.023 79.6365C175.049 79.7158 175.094 79.7879 175.153 79.8471C175.212 79.9062 175.284 79.9508 175.363 79.9773C175.443 80.0039 175.527 80.0116 175.61 80H203.5Z" fill="white"/>
<path d="M274.87 99.38C274.894 100.959 274.598 102.527 273.998 103.988C273.398 105.449 272.507 106.773 271.38 107.88C270.291 109.019 268.978 109.92 267.524 110.527C266.07 111.135 264.506 111.435 262.93 111.41H232V99.91H262.93C263.002 99.9204 263.075 99.9138 263.143 99.8907C263.212 99.8675 263.274 99.8286 263.324 99.7769C263.375 99.7253 263.413 99.6625 263.435 99.5935C263.457 99.5246 263.462 99.4514 263.45 99.38V91.38H235.57C232.391 91.3669 229.347 90.0984 227.099 87.8508C224.852 85.6032 223.583 82.5586 223.57 79.38V52.85C223.583 49.6715 224.852 46.6269 227.099 44.3793C229.347 42.1317 232.391 40.8632 235.57 40.85H262.93C264.506 40.8223 266.071 41.1217 267.525 41.7292C268.979 42.3368 270.292 43.2394 271.38 44.38C272.506 45.4854 273.396 46.8078 273.996 48.2671C274.595 49.7265 274.893 51.2924 274.87 52.87V99.38ZM235.57 80H262.93C263.28 80 263.45 79.8 263.45 79.39V52.85C263.45 52.45 263.28 52.24 262.93 52.24H235.57C235.487 52.2284 235.403 52.2361 235.323 52.2626C235.244 52.2892 235.172 52.3338 235.113 52.3929C235.054 52.4521 235.009 52.5242 234.983 52.6035C234.956 52.6828 234.948 52.7672 234.96 52.85V79.3401C234.939 79.4265 234.94 79.5167 234.962 79.6027C234.985 79.6888 235.028 79.768 235.088 79.8333C235.149 79.8986 235.224 79.948 235.308 79.9771C235.392 80.0062 235.482 80.014 235.57 80V80Z" fill="white"/>
<path d="M323 40.83C326.179 40.8431 329.223 42.1116 331.471 44.3592C333.718 46.6068 334.987 49.6514 335 52.83V71.83H295.08V79.32C295.068 79.4028 295.076 79.4872 295.103 79.5666C295.129 79.6459 295.174 79.7179 295.233 79.7771C295.292 79.8362 295.364 79.8808 295.443 79.9074C295.523 79.9339 295.607 79.9416 295.69 79.93H335V91.3499H295.7C292.521 91.3368 289.477 90.0683 287.229 87.8207C284.982 85.5731 283.713 82.5285 283.7 79.3499V52.85C283.713 49.6714 284.982 46.6268 287.229 44.3792C289.477 42.1317 292.521 40.8631 295.7 40.85L323 40.83ZM295.11 60.35H323.61V52.85C323.622 52.7671 323.614 52.6827 323.587 52.6034C323.561 52.5241 323.516 52.452 323.457 52.3929C323.398 52.3337 323.326 52.2891 323.247 52.2626C323.167 52.236 323.083 52.2283 323 52.24H295.69C295.607 52.2283 295.523 52.236 295.443 52.2626C295.364 52.2891 295.292 52.3337 295.233 52.3929C295.174 52.452 295.129 52.5241 295.103 52.6034C295.076 52.6827 295.068 52.7671 295.08 52.85L295.11 60.35Z" fill="white"/>
<path d="M395 52.85V55H383.62V52.82C383.632 52.7372 383.624 52.6528 383.597 52.5734C383.571 52.4941 383.526 52.422 383.467 52.3629C383.408 52.3037 383.336 52.2591 383.257 52.2326C383.177 52.2061 383.093 52.1983 383.01 52.21H355.73C355.647 52.1983 355.563 52.2061 355.483 52.2326C355.404 52.2591 355.332 52.3037 355.273 52.3629C355.214 52.422 355.169 52.4941 355.143 52.5734C355.116 52.6528 355.108 52.7372 355.12 52.82V59.82C355.12 60.17 355.33 60.35 355.73 60.35H383C384.59 60.317 386.17 60.6137 387.639 61.2212C389.109 61.8287 390.437 62.734 391.54 63.88C392.665 64.9859 393.553 66.3086 394.151 67.768C394.749 69.2274 395.045 70.793 395.02 72.37V79.37C395.02 82.5526 393.756 85.6049 391.505 87.8553C389.255 90.1057 386.203 91.37 383.02 91.37H355.73C352.551 91.3568 349.507 90.0884 347.259 87.8408C345.012 85.5932 343.743 82.5485 343.73 79.37V77.2H355.14V79.37C355.128 79.4528 355.136 79.5373 355.163 79.6166C355.189 79.6959 355.234 79.7679 355.293 79.8271C355.352 79.8862 355.424 79.9309 355.503 79.9574C355.583 79.9839 355.667 79.9916 355.75 79.98H383C383.083 79.9916 383.167 79.9839 383.247 79.9574C383.326 79.9309 383.398 79.8862 383.457 79.8271C383.516 79.7679 383.561 79.6959 383.587 79.6166C383.614 79.5373 383.622 79.4528 383.61 79.37V72.37C383.61 72.02 383.4 71.85 383 71.85H355.73C352.551 71.8368 349.507 70.5683 347.259 68.3207C345.012 66.0732 343.743 63.0286 343.73 59.85V52.85C343.743 49.6715 345.012 46.6269 347.259 44.3793C349.507 42.1317 352.551 40.8632 355.73 40.85H383C384.59 40.817 386.17 41.1137 387.639 41.7212C389.109 42.3287 390.437 43.234 391.54 44.38C392.658 45.4852 393.542 46.8054 394.136 48.2611C394.731 49.7168 395.025 51.2778 395 52.85V52.85Z" fill="white"/>
<path d="M30.51 58.23L48.14 37.94L21.84 11.12C20.58 9.83 18.54 10.12 17.3 11.81L1.79999 32.62C1.25915 33.3527 0.967346 34.2393 0.967346 35.15C0.967346 36.0606 1.25915 36.9473 1.79999 37.68L19.39 58.32C20.002 59.0791 20.3358 60.0249 20.3358 61C20.3358 61.9751 20.002 62.9209 19.39 63.68L1.79999 84.32C1.25915 85.0527 0.967346 85.9393 0.967346 86.85C0.967346 87.7606 1.25915 88.6473 1.79999 89.38L17.3 110.19C18.54 111.85 20.58 112.19 21.84 110.88L48.14 84.06L30.51 63.77C29.8644 62.9913 29.5111 62.0115 29.5111 61C29.5111 59.9885 29.8644 59.0087 30.51 58.23V58.23Z" fill="#4D4D4D"/>
<path d="M82.48 64.2C82.0567 63.7815 81.7207 63.2832 81.4913 62.7339C81.2619 62.1846 81.1439 61.5953 81.1439 61C81.1439 60.4048 81.2619 59.8154 81.4913 59.2661C81.7207 58.7169 82.0567 58.2185 82.48 57.8L111 29.38C111.489 28.9502 111.881 28.421 112.149 27.8279C112.417 27.2347 112.556 26.5911 112.556 25.94C112.556 25.289 112.417 24.6454 112.149 24.0522C111.881 23.459 111.489 22.9299 111 22.5L85.5 1.39004C83.7 -0.0999554 80.8 0.390045 79.04 2.39004L48.14 37.95L67.72 57.95C68.5191 58.7762 68.9659 59.8806 68.9659 61.03C68.9659 62.1795 68.5191 63.2839 67.72 64.11L48.14 84.11L79 119.62C80.76 121.62 83.66 122.1 85.46 120.62L111 99.5C111.489 99.0702 111.881 98.541 112.149 97.9478C112.417 97.3547 112.556 96.7111 112.556 96.06C112.556 95.409 112.417 94.7654 112.149 94.1722C111.881 93.579 111.489 93.0499 111 92.62L82.48 64.2Z" fill="#CCCCCC"/>
<path d="M67.72 57.92L48.14 37.92L30.51 58.21C29.8644 58.9887 29.5111 59.9685 29.5111 60.98C29.5111 61.9916 29.8644 62.9713 30.51 63.75L48.14 84.04L67.72 64.04C68.5073 63.2158 68.9467 62.1199 68.9467 60.98C68.9467 59.8402 68.5073 58.7443 67.72 57.92V57.92Z" fill="#1A1A1A"/>
</svg>
