<svg width="149" height="134" viewBox="0 0 149 134" fill="none" xmlns="http://www.w3.org/2000/svg">
<path d="M148.9 122.9V126.8C148.9 130.3 145.9 133.2 142.2 133.2H7.29998C3.59998 133.2 0.599976 130.3 0.599976 126.8V122.9H61.6C62.1 124.3 63.5 125.4 65.2 125.4H84.3C86 125.4 87.4 124.4 87.9 122.9H148.9Z" fill="#2767F4"/>
<path d="M148.9 122.9C148.9 126.4 145.9 129.2 142.2 129.2H7.29998C3.59998 129.2 0.599976 126.4 0.599976 122.9H61.6C62.1 124.3 63.5 125.4 65.2 125.4H84.3C86 125.4 87.4 124.4 87.9 122.9H148.9Z" fill="#3973F4"/>
<path d="M141.3 122.9H8.29993V38.7C8.29993 36 10.4999 33.8 13.1999 33.8H136.5C139.2 33.8 141.4 36 141.4 38.7L141.3 122.9Z" fill="#4988FD"/>
<path d="M108.2 123.2H14.5V40.8H134.6V123.2H122" fill="white"/>
<path d="M75.2999 106.9H66.7999C65.3999 106.9 64.2999 105.8 64.2999 104.4C64.2999 103 65.3999 101.9 66.7999 101.9H75.2999C76.6999 101.9 77.7999 103 77.7999 104.4C77.7999 105.8 76.6999 106.9 75.2999 106.9Z" fill="#C5DCFA"/>
<path d="M56.4999 106.9H21.2999C19.8999 106.9 18.7999 105.8 18.7999 104.4C18.7999 103 19.8999 101.9 21.2999 101.9H56.4999C57.8999 101.9 58.9999 103 58.9999 104.4C58.9999 105.8 57.8999 106.9 56.4999 106.9Z" fill="#C5DCFA"/>
<path d="M91.6999 95H53.3999C51.9999 95 50.8999 93.9 50.8999 92.5C50.8999 91.1 51.9999 90 53.3999 90H91.6999C93.0999 90 94.1999 91.1 94.1999 92.5C94.1999 93.9 93.0999 95 91.6999 95Z" fill="#C5DCFA"/>
<path d="M42.6999 95H21.7999C20.3999 95 19.2999 93.9 19.2999 92.5C19.2999 91.1 20.3999 90 21.7999 90H42.6999C44.0999 90 45.1999 91.1 45.1999 92.5C45.1999 93.9 44.0999 95 42.6999 95Z" fill="#C5DCFA"/>
<path d="M46.7999 61.4H22.2999C20.8999 61.4 19.7999 60.3 19.7999 58.9C19.7999 57.5 20.8999 56.4 22.2999 56.4H46.7999C48.1999 56.4 49.2999 57.5 49.2999 58.9C49.2999 60.3 48.1999 61.4 46.7999 61.4Z" fill="#C5DCFA"/>
<path d="M38.8999 71.8H22.2999C20.8999 71.8 19.7999 70.7 19.7999 69.3C19.7999 67.9 20.8999 66.8 22.2999 66.8H38.8999C40.2999 66.8 41.3999 67.9 41.3999 69.3C41.3999 70.7 40.1999 71.8 38.8999 71.8Z" fill="#C5DCFA"/>
<path d="M108.6 11.9C108.5 31.4 107.7 44.1 103 54C98.4 63.9 89.9 71 74.3 79.4C74.2 79.4 74.1 79.5 74 79.5C42.6 62.5 39.7 50.8 39.5 11.8C39.8 11.8 40.1 11.8 40.4 11.8C49.2 11.8 63.7 7.10001 74.1 0.100006C84.7 7.50001 99.9 12.2 108.6 11.9Z" fill="#21D3AC"/>
<path d="M74 72C73.7 72 73.5 71.9 73.3 71.8C49.8 58.5 46.5 49.2 46 19.1C46 18.4 46.5 17.7 47.3 17.6C55.6 16.2 65.4 12.7 73.4 8.1C73.9 7.8 74.4 7.8 74.9 8.1C82.9 12.7 92.6 16.2 101 17.6C101.7 17.7 102.3 18.4 102.3 19.1C102 33.1 101.1 43.4 97.4 51.2C93.8 58.8 87.3 64.7 75 71.8C74.6 72 74.3 72 74 72ZM49 20.4C49.7 49.5 53.6 57.2 74 68.8C85.3 62.3 91.3 56.8 94.5 50C97.8 42.9 98.8 33.4 99.1 20.4C91 18.9 81.8 15.5 74.1 11.2C66.3 15.5 57.1 18.9 49 20.4Z" fill="#59E0C3"/>
<path d="M72.2 51.4C70.6 51.4 69.1 50.8 68 49.7L60.1 42C58.7 40.7 58.7 38.4 60 37.1C61.3 35.7 63.6 35.7 64.9 37L72.1 44L86.3 29.8C87.7 28.4 89.9 28.4 91.2 29.8C92.6 31.2 92.6 33.4 91.2 34.7L76.3 49.6C75.3 50.7 73.8 51.4 72.2 51.4ZM72.8 44.6C72.9 44.6 72.9 44.6 72.8 44.6V44.6Z" fill="white"/>
</svg>
