<svg width="106" height="136" viewBox="0 0 106 136" fill="none" xmlns="http://www.w3.org/2000/svg">
<g clip-path="url(#clip0)">
<path d="M16.6 0.200012H101.4C103.5 0.200012 105.2 1.90001 105.2 4.00001V132.2C105.2 134.3 103.5 136 101.4 136H4.20002C2.10002 136 0.400024 134.3 0.400024 132.2V4.00001C0.400024 1.90001 2.10002 0.200012 4.20002 0.200012H9.80002" fill="#4988FD"/>
<path d="M99.6 12.4V127.6C99.6 129.3 98.2 130.6 96.6 130.6H9.90002C8.20002 130.6 6.90002 129.3 6.90002 127.6V12.4C6.90002 10.7 8.20002 9.40002 9.90002 9.40002H96.6C98.2 9.40002 99.6 10.7 99.6 12.4Z" fill="white"/>
<path d="M85.4 36.7H78.2C77.1 36.7 76.2 35.8 76.2 34.7C76.2 33.6 77.1 32.7 78.2 32.7H85.4C86.5 32.7 87.4 33.6 87.4 34.7C87.4 35.8 86.5 36.7 85.4 36.7Z" fill="#C5DCFA"/>
<path d="M73.0001 36.7H57.0001C55.9001 36.7 55.0001 35.8 55.0001 34.7C55.0001 33.6 55.9001 32.7 57.0001 32.7H73.1001C74.2001 32.7 75.1001 33.6 75.1001 34.7C75.1001 35.8 74.1001 36.7 73.0001 36.7Z" fill="#89A8D1"/>
<path d="M51.4 36.7H46.1C45 36.7 44.1 35.8 44.1 34.7C44.1 33.6 45 32.7 46.1 32.7H51.4C52.5 32.7 53.4 33.6 53.4 34.7C53.4 35.8 52.5 36.7 51.4 36.7Z" fill="#C5DCFA"/>
<path d="M65 45.7H62.1C61 45.7 60.1 44.8 60.1 43.7C60.1 42.6 61 41.7 62.1 41.7H65C66.1 41.7 67 42.6 67 43.7C67 44.8 66.1 45.7 65 45.7Z" fill="#C5DCFA"/>
<path d="M55.7 45.7H46.1C45 45.7 44.1 44.8 44.1 43.7C44.1 42.6 45 41.7 46.1 41.7H55.7C56.8 41.7 57.7 42.6 57.7 43.7C57.7 44.8 56.8 45.7 55.7 45.7Z" fill="#89A8D1"/>
<path d="M28.7001 48.3C34.0572 48.3 38.4001 43.9572 38.4001 38.6C38.4001 33.2429 34.0572 28.9 28.7001 28.9C23.3429 28.9 19.0001 33.2429 19.0001 38.6C19.0001 43.9572 23.3429 48.3 28.7001 48.3Z" fill="#21D3AC"/>
<path d="M26.9001 42.8C26.5001 42.8 26.1001 42.7 25.8001 42.4L22.9001 39.5C22.3001 38.9 22.3001 38 22.9001 37.4C23.5001 36.8 24.4001 36.8 25.0001 37.4L26.9001 39.3L31.7001 34.5C32.3001 33.9 33.2001 33.9 33.8001 34.5C34.4001 35.1 34.4001 36 33.8001 36.6L27.9001 42.5C27.7001 42.7 27.3001 42.8 26.9001 42.8Z" fill="white"/>
<path d="M85.4 69.2H78.2C77.1 69.2 76.2 68.3 76.2 67.2C76.2 66.1 77.1 65.2 78.2 65.2H85.4C86.5 65.2 87.4 66.1 87.4 67.2C87.4 68.3 86.5 69.2 85.4 69.2Z" fill="#C5DCFA"/>
<path d="M73.0001 69.2H57.0001C55.9001 69.2 55.0001 68.3 55.0001 67.2C55.0001 66.1 55.9001 65.2 57.0001 65.2H73.1001C74.2001 65.2 75.1001 66.1 75.1001 67.2C75.1001 68.3 74.1001 69.2 73.0001 69.2Z" fill="#89A8D1"/>
<path d="M51.4 69.2H46.1C45 69.2 44.1 68.3 44.1 67.2C44.1 66.1 45 65.2 46.1 65.2H51.4C52.5 65.2 53.4 66.1 53.4 67.2C53.4 68.3 52.5 69.2 51.4 69.2Z" fill="#C5DCFA"/>
<path d="M65 78.2H62.1C61 78.2 60.1 77.3 60.1 76.2C60.1 75.1 61 74.2 62.1 74.2H65C66.1 74.2 67 75.1 67 76.2C67 77.3 66.1 78.2 65 78.2Z" fill="#89A8D1"/>
<path d="M55.7 78.2H46.1C45 78.2 44.1 77.3 44.1 76.2C44.1 75.1 45 74.2 46.1 74.2H55.7C56.8 74.2 57.7 75.1 57.7 76.2C57.7 77.3 56.8 78.2 55.7 78.2Z" fill="#C5DCFA"/>
<path d="M28.6 80.8C34.0124 80.8 38.4 76.4124 38.4 71C38.4 65.5876 34.0124 61.2 28.6 61.2C23.1877 61.2 18.8 65.5876 18.8 71C18.8 76.4124 23.1877 80.8 28.6 80.8Z" fill="#21D3AC"/>
<path d="M26.9001 75.3C26.5001 75.3 26.1001 75.1 25.8001 74.9L22.9001 72C22.3001 71.4 22.3001 70.5 22.9001 69.9C23.5001 69.3 24.4001 69.3 25.0001 69.9L26.9001 71.8L31.7001 67C32.3001 66.4 33.2001 66.4 33.8001 67C34.4001 67.6 34.4001 68.5 33.8001 69.1L27.9001 75C27.7001 75.2 27.3001 75.3 26.9001 75.3Z" fill="white"/>
<path d="M73.0001 101.7H57.0001C55.9001 101.7 55.0001 100.8 55.0001 99.7C55.0001 98.6 55.9001 97.7 57.0001 97.7H73.1001C74.2001 97.7 75.1001 98.6 75.1001 99.7C75.1001 100.8 74.1001 101.7 73.0001 101.7Z" fill="#C5DCFA"/>
<path d="M51.4 101.7H46.1C45 101.7 44.1 100.8 44.1 99.7C44.1 98.6 45 97.7 46.1 97.7H51.4C52.5 97.7 53.4 98.6 53.4 99.7C53.4 100.8 52.5 101.7 51.4 101.7Z" fill="#89A8D1"/>
<path d="M65 110.7H62.1C61 110.7 60.1 109.8 60.1 108.7C60.1 107.6 61 106.7 62.1 106.7H65C66.1 106.7 67 107.6 67 108.7C67 109.8 66.1 110.7 65 110.7Z" fill="#C5DCFA"/>
<path d="M55.7 110.7H46.1C45 110.7 44.1 109.8 44.1 108.7C44.1 107.6 45 106.7 46.1 106.7H55.7C56.8 106.7 57.7 107.6 57.7 108.7C57.7 109.8 56.8 110.7 55.7 110.7Z" fill="#89A8D1"/>
<path d="M28.7 113.4C34.1124 113.4 38.5 109.012 38.5 103.6C38.5 98.1876 34.1124 93.8 28.7 93.8C23.2876 93.8 18.9 98.1876 18.9 103.6C18.9 109.012 23.2876 113.4 28.7 113.4Z" fill="#21D3AC"/>
<path d="M26.9 107.8C26.5 107.8 26.1 107.6 25.8 107.4L22.9 104.5C22.3 103.9 22.3 103 22.9 102.4C23.5 101.8 24.4 101.8 25 102.4L26.9 104.3L31.7 99.5C32.3 98.9 33.2 98.9 33.8 99.5C34.4 100.1 34.4 101 33.8 101.6L27.9 107.5C27.7 107.7 27.3 107.8 26.9 107.8Z" fill="white"/>
</g>
<defs>
<clipPath id="clip0">
<rect width="106" height="136" fill="white"/>
</clipPath>
</defs>
</svg>
