<svg width="113" height="122" viewBox="0 0 113 122" fill="none" xmlns="http://www.w3.org/2000/svg">
<path d="M30.5099 58.23L48.14 37.94L21.8399 11.12C20.5799 9.83 18.5399 10.12 17.2999 11.81L1.79993 32.62C1.25909 33.3527 0.967285 34.2393 0.967285 35.15C0.967285 36.0606 1.25909 36.9473 1.79993 37.68L19.39 58.32C20.002 59.0791 20.3357 60.0249 20.3357 61C20.3357 61.9751 20.002 62.9209 19.39 63.68L1.79993 84.32C1.25909 85.0527 0.967285 85.9393 0.967285 86.85C0.967285 87.7606 1.25909 88.6473 1.79993 89.38L17.2999 110.19C18.5399 111.85 20.5799 112.19 21.8399 110.88L48.14 84.06L30.5099 63.77C29.8643 62.9913 29.511 62.0115 29.511 61C29.511 59.9885 29.8643 59.0087 30.5099 58.23V58.23Z" fill="#0096FF"/>
<path d="M82.48 64.2C82.0567 63.7815 81.7207 63.2832 81.4913 62.7339C81.2619 62.1846 81.1439 61.5952 81.1439 61C81.1439 60.4048 81.2619 59.8154 81.4913 59.2661C81.7207 58.7168 82.0567 58.2185 82.48 57.8L111 29.38C111.489 28.9502 111.881 28.421 112.149 27.8278C112.417 27.2346 112.556 26.5911 112.556 25.94C112.556 25.2889 112.417 24.6453 112.149 24.0522C111.881 23.459 111.489 22.9298 111 22.5L85.5 1.39001C83.7 -0.0999859 80.8 0.390014 79.04 2.39001L48.14 37.95L67.72 57.95C68.5191 58.7762 68.9659 59.8806 68.9659 61.03C68.9659 62.1794 68.5191 63.2838 67.72 64.11L48.14 84.11L79 119.62C80.76 121.62 83.66 122.1 85.46 120.62L111 99.5C111.489 99.0702 111.881 98.541 112.149 97.9478C112.417 97.3546 112.556 96.7111 112.556 96.06C112.556 95.4089 112.417 94.7654 112.149 94.1722C111.881 93.579 111.489 93.0498 111 92.62L82.48 64.2Z" fill="#00D6E1"/>
<path d="M67.72 57.92L48.14 37.92L30.51 58.21C29.8644 58.9887 29.5111 59.9685 29.5111 60.98C29.5111 61.9915 29.8644 62.9713 30.51 63.75L48.14 84.04L67.72 64.04C68.5074 63.2158 68.9467 62.1198 68.9467 60.98C68.9467 59.8402 68.5074 58.7442 67.72 57.92V57.92Z" fill="#0038DF"/>
</svg>
