<svg width="256" height="227" viewBox="0 0 256 227" fill="none" xmlns="http://www.w3.org/2000/svg">
<g clip-path="url(#clip0)">
<rect width="256" height="227" fill="white"/>
<path d="M188.501 92.8333H175.796C172.024 78.2226 164.228 64.9629 153.297 54.561C142.365 44.1591 128.734 37.0321 113.954 33.9898C99.1741 30.9475 83.837 32.1119 69.6856 37.3507C55.5343 42.5895 43.1361 51.6927 33.8999 63.6258C24.6636 75.5589 18.9598 89.8434 17.4363 104.856C15.9129 119.869 18.6311 135.008 25.2819 148.553C31.9327 162.099 42.2495 173.507 55.06 181.482C67.8706 189.456 82.6611 193.678 97.751 193.667H188.501C201.872 193.667 214.696 188.355 224.151 178.9C233.606 169.445 238.918 156.621 238.918 143.25C238.918 129.879 233.606 117.055 224.151 107.6C214.696 98.1451 201.872 92.8333 188.501 92.8333Z" stroke="url(#paint0_linear)" stroke-width="10" stroke-linecap="round" stroke-linejoin="round"/>
<path d="M72.3501 113.412L88.7319 94.4521L64.2939 69.3908C63.1231 68.1854 61.2275 68.4564 60.0753 70.0356L45.6726 89.481C45.1701 90.1656 44.8989 90.9941 44.8989 91.8451C44.8989 92.696 45.1701 93.5246 45.6726 94.2092L62.0173 113.496C62.586 114.205 62.8961 115.089 62.8961 116C62.8961 116.911 62.586 117.795 62.0173 118.504L45.6726 137.791C45.1701 138.475 44.8989 139.304 44.8989 140.155C44.8989 141.006 45.1701 141.834 45.6726 142.519L60.0753 161.964C61.2275 163.516 63.1231 163.833 64.2939 162.609L88.7319 137.548L72.3501 118.588C71.7502 117.861 71.4219 116.945 71.4219 116C71.4219 115.055 71.7502 114.139 72.3501 113.412V113.412Z" fill="#0096FF"/>
<path d="M120.641 118.99C120.247 118.599 119.935 118.133 119.722 117.62C119.509 117.107 119.399 116.556 119.399 116C119.399 115.444 119.509 114.893 119.722 114.38C119.935 113.867 120.247 113.401 120.641 113.01L147.142 86.4534C147.596 86.0518 147.96 85.5573 148.209 85.003C148.459 84.4488 148.588 83.8474 148.588 83.239C148.588 82.6306 148.459 82.0293 148.209 81.475C147.96 80.9207 147.596 80.4262 147.142 80.0246L123.447 60.2989C121.774 58.9066 119.08 59.3644 117.444 61.2333L88.7319 94.4615L106.926 113.15C107.668 113.922 108.083 114.954 108.083 116.028C108.083 117.102 107.668 118.134 106.926 118.906L88.7319 137.595L117.407 170.776C119.043 172.645 121.737 173.093 123.41 171.71L147.142 151.975C147.596 151.574 147.96 151.079 148.209 150.525C148.459 149.971 148.588 149.369 148.588 148.761C148.588 148.153 148.459 147.551 148.209 146.997C147.96 146.443 147.596 145.948 147.142 145.547L120.641 118.99Z" fill="#00D6E1"/>
<path d="M106.926 113.122L88.7319 94.4335L72.3501 113.393C71.7502 114.121 71.4219 115.036 71.4219 115.981C71.4219 116.927 71.7502 117.842 72.3501 118.57L88.7319 137.529L106.926 118.841C107.657 118.071 108.066 117.046 108.066 115.981C108.066 114.916 107.657 113.892 106.926 113.122V113.122Z" fill="#0038DF"/>
</g>
<defs>
<linearGradient id="paint0_linear" x1="189" y1="81" x2="-2.99999" y2="187" gradientUnits="userSpaceOnUse">
<stop stop-color="#0096FF"/>
<stop offset="0.9999" stop-color="#00D6E1"/>
<stop offset="1" stop-color="#0096FF" stop-opacity="0"/>
<stop offset="1" stop-color="#00D6E1"/>
</linearGradient>
<clipPath id="clip0">
<rect width="256" height="227" fill="white"/>
</clipPath>
</defs>
</svg>
